HIERARCHY
ROOT Hips
{
	OFFSET 0.000000 0.000000 0.000000 
	CHANNELS 6 Xposition Yposition Zposition Yrotation Zrotation Xrotation 
	JOINT Lumbar
	{
		OFFSET 0.000000 0.000000 0.000000 
		CHANNELS 3 Zrotation Xrotation Yrotation
		JOINT Neck
		{
			OFFSET 0.000000 0.445665 0.000000 
			CHANNELS 3 Zrotation Xrotation Yrotation
			End Site
			{
				OFFSET 0.000000 0.227535 0.000000 
			}
		}
		JOINT RightShoulder
		{
			OFFSET 0.019635 0.377685 0.194865 
			CHANNELS 3 Zrotation Xrotation Yrotation
			JOINT RightElbow
			{
				OFFSET 0.000000 -0.243375 0.000000 
				CHANNELS 2 Zrotation Yrotation
				JOINT RightWrist
				{
					OFFSET 0.000000 -0.264825 0.000000 
					CHANNELS 2 Zrotation Xrotation
					End Site
					{
						OFFSET 0.006600 -0.176220 0.000990 
					}
				}
			}
		}
		JOINT LeftShoulder
		{
			OFFSET 0.019635 0.377685 -0.194865 
			CHANNELS 3 Zrotation Xrotation Yrotation
			JOINT LeftElbow
			{
				OFFSET 0.000000 -0.243375 0.000000 
				CHANNELS 2 Zrotation Yrotation
				JOINT LeftWrist
				{
					OFFSET 0.000000 -0.264825 0.000000 
					CHANNELS 2 Zrotation Xrotation
					End Site
					{
						OFFSET 0.006600 -0.176220 -0.000990 
					}
				}
			}
		}
	}
	JOINT RightHip
	{
		OFFSET 0.052140 -0.069960 0.075570 
		CHANNELS 3 Zrotation Xrotation Yrotation
		JOINT RightKnee
		{
			OFFSET 0.000000 -0.402270 0.000000 
			CHANNELS 1 Zrotation
			JOINT RightAnkle
			{
				OFFSET 0.000000 -0.404085 0.000000 
				CHANNELS 3 Zrotation Xrotation Yrotation
				End Site
				{
					OFFSET 0.204105 -0.089430 0.008415 
				}
			}
		}
	}
	JOINT LeftHip
	{
		OFFSET 0.052140 -0.069960 -0.075570 
		CHANNELS 3 Zrotation Xrotation Yrotation
		JOINT LeftKnee
		{
			OFFSET 0.000000 -0.402270 0.000000 
			CHANNELS 1 Zrotation
			JOINT LeftAnkle
			{
				OFFSET 0.000000 -0.404085 0.000000 
				CHANNELS 3 Zrotation Xrotation Yrotation
				End Site
				{
					OFFSET 0.204105 -0.089430 -0.008415 
				}
			}
		}
	}
}
MOTION
Frames: 32
Frame Time: 0.02
0 0.95578 -0 183.55777 0 -3.23876 2.21805 2.53258 -2.44188 -32.84165 3.58294 2.13518 -19.21193 -70.71339 -83.235 23.84207 72.24759 -20.58756 -1.97832 -1.46827 75.24194 64.09153 23.09226 -68.89744 -33.76899 2.28763 -3.77232 3.09338 7.23217 -6.50717 -1.87921 -3.80283 -6.84603 -2.32066 4.47989 1.87413 -7.02 4.5288 2.81309 1.6066
-7e-05 0.95578 7e-05 183.55002 0 -3.2385 2.21755 2.53646 -2.43496 -32.82254 3.58255 2.14495 -19.2683 -70.70027 -83.29173 23.83921 72.27081 -20.59128 -1.98258 -1.38612 75.18856 64.00847 23.1232 -68.80978 -33.87631 2.2548 -3.76677 3.09002 7.23596 -6.52515 -1.86673 -3.79872 -6.84238 -2.32391 4.47694 1.89322 -7.02491 4.53661 2.81871 1.59692
-0.00014 0.95577 0.00013 183.54234 0 -3.23826 2.21698 2.54034 -2.42812 -32.80347 3.58223 2.15467 -19.3242 -70.68731 -83.34731 23.83625 72.29384 -20.59572 -1.98695 -1.30491 75.13515 63.92642 23.1541 -68.72304 -33.98275 2.22235 -3.76132 3.08667 7.23957 -6.54294 -1.85434 -3.79462 -6.83864 -2.32717 4.47402 1.91209 -7.02978 4.54447 2.82433 1.58736
-0.00021 0.95576 0.0002 183.53482 0 -3.23808 2.21617 2.54419 -2.42159 -32.78427 3.58225 2.16427 -19.38009 -70.6754 -83.39777 23.83236 72.31527 -20.60461 -1.99188 -1.22683 75.08128 63.84762 23.1849 -68.63864 -34.08686 2.1911 -3.75617 3.08338 7.24288 -6.56017 -1.84219 -3.79057 -6.83483 -2.33047 4.47115 1.93024 -7.03451 4.55245 2.82998 1.57831
-0.00028 0.95575 0.00027 183.5264 0 -3.23757 2.2167 2.54811 -2.41351 -32.76563 3.58053 2.17447 -19.43761 -70.65857 -83.47414 23.83279 72.34394 -20.59175 -1.99389 -1.13234 75.03009 63.75165 23.2159 -68.54122 -34.20354 2.15353 -3.74939 3.07981 7.24822 -6.58037 -1.82881 -3.78629 -6.83179 -2.33347 4.468 1.95219 -7.03999 4.55962 2.83547 1.56671
-0.00035 0.95574 0.00033 183.51989 0 -3.23775 2.21437 2.55192 -2.40867 -32.74591 3.58244 2.18339 -19.49059 -70.65174 -83.49645 23.82452 72.3581 -20.62364 -2.00203 -1.07252 74.97311 63.69205 23.2467 -68.47187 -34.29336 2.12933 -3.74608 3.07682 7.24898 -6.59428 -1.81801 -3.78246 -6.82685 -2.33715 4.46544 1.96611 -7.04385 4.56863 2.84128 1.56042
-0.00043 0.95574 0.00039 183.51865 0 -3.23999 2.20404 2.55526 -2.4132 -32.72178 3.59527 2.18899 -19.54057 -70.67691 -83.35712 23.78753 72.32409 -20.79562 -2.02849 -1.11195 74.89914 63.73556 23.276 -68.4781 -34.30966 2.14311 -3.7525 3.07565 7.23919 -6.59055 -1.8147 -3.78004 -6.81875 -2.3426 4.46451 1.95697 -7.04343 4.58196 2.84816 1.56993
-0.00051 0.95573 0.00044 183.51933 0 -3.24292 2.19083 2.55853 -2.42093 -32.69674 3.6116 2.19325 -19.58417 -70.71134 -83.165 23.74277 72.27695 -21.01014 -2.06094 -1.18604 74.81926 63.81559 23.30558 -68.51345 -34.2985 2.17028 -3.7624 3.07506 7.22446 -6.58052 -1.81394 -3.77803 -6.80841 -2.34876 4.46417 1.93984 -7.04137 4.59723 2.85535 1.58463
-0.00059 0.95572 0.00049 183.5191 0 -3.24545 2.17901 2.56192 -2.42689 -32.67304 3.62577 2.19802 -19.62473 -70.73883 -83.00531 23.70438 72.24098 -21.19439 -2.08974 -1.24176 74.74284 63.87691 23.33534 -68.53624 -34.29978 2.19061 -3.77061 3.07408 7.21055 -6.57355 -1.81177 -3.77569 -6.79765 -2.35468 4.46355 1.92694 -7.03995 4.61219 2.86229 1.59619
-0.00067 0.95571 0.00054 183.51901 0 -3.24832 2.1669 2.56487 -2.43414 -32.64559 3.64234 2.20326 -19.69086 -70.77815 -82.81139 23.65329 72.1828 -21.42389 -2.12232 -1.30752 74.66386 63.94613 23.36267 -68.5545 -34.30216 2.21387 -3.77925 3.07359 7.20237 -6.56574 -1.81059 -3.77391 -6.79267 -2.36026 4.46297 1.9116 -7.03894 4.62497 2.86968 1.61094
-0.00075 0.9557 0.00059 183.51909 0 -3.25067 2.15466 2.56881 -2.43954 -32.62557 3.65471 2.20711 -19.70159 -70.79466 -82.6745 23.62768 72.1681 -21.57036 -2.14861 -1.36185 74.58796 64.00885 23.39656 -68.59126 -34.29454 2.23453 -3.78783 3.07225 7.18145 -6.55821 -1.80803 -3.7711 -6.77549 -2.36668 4.46245 1.89933 -7.03673 4.64244 2.87621 1.62044
-0.00084 0.95569 0.00063 183.51901 0 -3.25126 2.1432 2.57489 -2.43841 -32.62757 3.65502 2.20837 -19.56565 -70.74855 -82.72265 23.66771 72.27501 -21.46803 -2.15496 -1.36549 74.52884 64.03421 23.43725 -68.65338 -34.27628 2.24177 -3.79541 3.06806 7.12349 -6.55278 -1.80058 -3.76499 -6.72224 -2.37557 4.46196 1.89849 -7.03109 4.67525 2.88028 1.61262
-0.00093 0.95569 0.00066 183.51906 0 -3.25132 2.1316 2.5821 -2.43543 -32.63676 3.65089 2.20808 -19.37295 -70.6784 -82.82714 23.73549 72.4273 -21.28272 -2.15515 -1.35838 74.47145 64.05399 23.48731 -68.73646 -34.24705 2.24643 -3.8028 3.06305 7.05351 -6.54788 -1.79174 -3.75787 -6.65739 -2.38523 4.46152 1.90085 -7.02437 4.71222 2.88348 1.59959
-0.00103 0.95568 0.00069 183.51917 0 -3.2517 2.11978 2.58917 -2.43374 -32.64192 3.64856 2.20793 -19.20353 -70.61787 -82.89641 23.79411 72.55878 -21.14093 -2.15868 -1.36322 74.40919 64.08291 23.53964 -68.82229 -34.21609 2.25421 -3.81024 3.05861 6.99098 -6.54288 -1.78382 -3.75143 -6.59971 -2.39432 4.46106 1.90102 -7.01849 4.74535 2.8871 1.59002
-0.00112 0.95568 0.00072 183.51888 0 -3.25176 2.10913 2.5946 -2.43029 -32.65061 3.64732 2.21025 -19.04587 -70.56429 -83.00501 23.83535 72.68702 -20.97465 -2.15944 -1.33959 74.36523 64.08422 23.56172 -68.85781 -34.21233 2.25437 -3.81794 3.05335 6.91967 -6.53707 -1.77477 -3.74409 -6.53374 -2.40431 4.46058 1.90386 -7.01113 4.78661 2.89064 1.57618
-0.00121 0.95567 0.00075 183.51938 0 -3.25235 2.09598 2.60378 -2.43001 -32.65326 3.64263 2.20691 -18.84861 -70.48901 -83.04502 23.92267 72.83745 -20.84092 -2.16531 -1.37205 74.28208 64.14248 23.6524 -69.00209 -34.14988 2.26942 -3.82504 3.04962 6.86414 -6.53314 -1.76773 -3.73839 -6.48258 -2.41267 4.46017 1.9022 -7.00654 4.81209 2.89412 1.56974
-0.00131 0.95566 0.00079 183.52232 0 -3.25465 2.07637 2.6227 -2.43901 -32.64068 3.63011 2.18986 -18.56975 -70.37086 -82.88699 24.10441 72.99824 -20.80219 -2.17899 -1.56318 74.10324 64.34769 23.90227 -69.4473 -33.9262 2.32803 -3.83027 3.05022 6.85254 -6.53453 -1.76642 -3.73731 -6.47264 -2.41557 4.45983 1.88559 -7.01076 4.79128 2.89777 1.58675
-0.0014 0.95566 0.00082 183.52597 0 -3.25749 2.05416 2.64545 -2.45123 -32.62106 3.61414 2.16689 -18.24988 -70.22915 -82.6564 24.33724 73.18631 -20.80198 -2.19927 -1.8103 73.88217 64.61183 24.22665 -70.00022 -33.64427 2.40136 -3.83491 3.05243 6.85767 -6.53779 -1.76719 -3.73794 -6.4784 -2.4169 4.45961 1.86469 -7.01768 4.75474 2.90137 1.61106
-0.0015 0.95565 0.00086 183.52909 0 -3.25999 2.03292 2.66664 -2.46194 -32.60269 3.59936 2.14566 -17.94046 -70.09137 -82.457 24.56278 73.3893 -20.79354 -2.22183 -2.0314 73.67245 64.85716 24.53448 -70.4997 -33.3904 2.46664 -3.84002 3.05398 6.85695 -6.54003 -1.76713 -3.73789 -6.47875 -2.41945 4.45941 1.84695 -7.02275 4.7265 2.90493 1.63083
-0.00158 0.95564 0.0009 183.53314 0 -3.26281 2.01271 2.68702 -2.47282 -32.59323 3.58607 2.12842 -17.66597 -69.98305 -82.27066 24.71885 73.48252 -20.74195 -2.22257 -2.25636 73.4974 65.07096 24.76715 -71.01813 -33.1296 2.53738 -3.84438 3.05516 6.8487 -6.54295 -1.76658 -3.73744 -6.4718 -2.41999 4.45885 1.82429 -7.03031 4.69353 2.90871 1.65547
-0.00169 0.95564 0.00093 183.53533 0 -3.26514 1.98954 2.71008 -2.48412 -32.56291 3.56884 2.10143 -17.30681 -69.80597 -82.03466 25.03539 73.80525 -20.79188 -2.26953 -2.48446 73.2382 65.3616 25.17694 -71.52335 -32.8693 2.60049 -3.85003 3.05755 6.85989 -6.54498 -1.76748 -3.73819 -6.48346 -2.42422 4.45911 1.81074 -7.03345 4.66664 2.91204 1.67189
-0.00186 0.95564 0.00093 183.53288 0 -3.26579 1.96041 2.73885 -2.49606 -32.48097 3.54221 2.04968 -16.74855 -69.46224 -81.7162 25.74782 74.79938 -21.10005 -2.45036 -2.72635 72.77233 65.87344 26.03251 -71.95801 -32.62726 2.6373 -3.86036 3.06273 6.92395 -6.54343 -1.77256 -3.74216 -6.5466 -2.43983 4.46127 1.82395 -7.02286 4.66037 2.91424 1.66296
-0.00205 0.95564 0.00091 183.52841 0 -3.26598 1.92806 2.77033 -2.50832 -32.37733 3.51165 1.98825 -16.10192 -69.04657 -81.34225 26.62602 76.01591 -21.51125 -2.67616 -2.96558 72.21987 66.45525 27.0687 -72.37753 -32.38758 2.66631 -3.87181 3.06913 7.00637 -6.54104 -1.77892 -3.74721 -6.62719 -2.45904 4.46435 1.84636 -7.00789 4.66077 2.91597 1.64568
-0.00222 0.95565 0.0009 183.52442 0 -3.26649 1.89621 2.80104 -2.52025 -32.2809 3.48245 1.93075 -15.48014 -68.65304 -80.97027 27.45135 77.10025 -21.88477 -2.87608 -3.19428 71.69764 66.99089 28.03819 -72.8082 -32.1448 2.69986 -3.88212 3.07507 7.07836 -6.5395 -1.78424 -3.75154 -6.69735 -2.47607 4.4672 1.86414 -6.99548 4.65813 2.91788 1.63283
-0.00242 0.95565 0.0009 183.52228 0 -3.26647 1.86847 2.8299 -2.53296 -32.19586 3.45481 1.87483 -14.92253 -68.30492 -80.69737 28.18485 78.31342 -22.22345 -3.09871 -3.47625 71.21452 67.59322 28.94406 -73.22234 -31.90739 2.7294 -3.8951 3.0806 7.16 -6.53613 -1.79149 -3.75691 -6.77885 -2.49539 4.46917 1.88363 -6.98077 4.65497 2.91997 1.61757
-0.00257 0.95565 0.00087 183.51581 0 -3.26751 1.83127 2.86325 -2.54422 -32.08151 3.42318 1.81363 -14.20956 -67.84331 -80.20156 29.14677 79.31513 -22.65559 -3.28524 -3.64371 70.6273 68.06755 30.02597 -73.66877 -31.66155 2.76564 -3.90276 3.08736 7.22534 -6.53628 -1.79507 -3.76035 -6.84038 -2.51075 4.47331 1.90187 -6.96976 4.65471 2.92155 1.60522
-0.00259 0.95563 0.00078 183.49811 0 -3.27112 1.77 2.90812 -2.55022 -31.89562 3.38035 1.73842 -13.10128 -67.10383 -79.14032 30.71054 79.64172 -23.34691 -3.35596 -3.51389 69.79596 68.2117 31.53575 -74.18305 -31.38031 2.81888 -3.89584 3.09645 7.24403 -6.54681 -1.78771 -3.7583 -6.84505 -2.51469 4.48224 1.91362 -6.97008 4.66066 2.92192 1.6031
-0.00256 0.95561 0.00066 183.47619 0 -3.2759 1.69903 2.95745 -2.55491 -31.68005 3.33391 1.65868 -11.83852 -66.24907 -77.85003 32.49478 79.75556 -24.12354 -3.38983 -3.26516 68.85862 68.21573 33.21855 -74.73448 -31.09315 2.87969 -3.88348 3.1069 7.24505 -6.5608 -1.77666 -3.75428 -6.82858 -2.51442 4.49352 1.92389 -6.97425 4.6694 2.92179 1.60409
-0.00255 0.95559 0.00054 183.45589 0 -3.2805 1.63174 3.00489 -2.56105 -31.4757 3.28986 1.5821 -10.63771 -65.43592 -76.64122 34.17175 79.9895 -24.84379 -3.44376 -3.05871 67.95588 68.25844 34.83121 -75.28481 -30.81631 2.93922 -3.87333 3.11722 7.25222 -6.57293 -1.76762 -3.7511 -6.8199 -2.51585 4.50436 1.93549 -6.97663 4.67707 2.92187 1.60355
-0.00256 0.95558 0.00045 183.4363 0 -3.28367 1.56763 3.05184 -2.56381 -31.28101 3.24239 1.5002 -9.46512 -64.66713 -75.52659 35.88955 80.12821 -25.64239 -3.4848 -2.90219 67.10863 68.41343 36.41505 -75.76809 -30.50649 2.98944 -3.86421 3.12547 7.26802 -6.58637 -1.7573 -3.74813 -6.81905 -2.51842 4.51253 1.94497 -6.97907 4.68418 2.92204 1.60336
-0.00252 0.95555 0.0003 183.41488 0 -3.29002 1.49437 3.10083 -2.57301 -31.05836 3.20137 1.42886 -8.2026 -63.7778 -74.16127 37.56604 80.41704 -26.29623 -3.54392 -2.61306 66.12023 68.29501 38.09678 -76.39997 -30.26496 3.06084 -3.85178 3.13842 7.26137 -6.59779 -1.74868 -3.74429 -6.79719 -2.51744 4.52687 1.95794 -6.9823 4.69297 2.92185 1.60311
-0.00232 0.9555 3e-05 183.38427 0 -3.30536 1.40057 3.15456 -2.60281 -30.77528 3.17794 1.38389 -6.69164 -62.59876 -72.16606 39.12637 81.12602 -26.53384 -3.65673 -1.98986 64.78152 67.49992 40.01125 -77.43416 -30.20496 3.18985 -3.83029 3.16313 7.19702 -6.6037 -1.74618 -3.73826 -6.71773 -2.50858 4.55722 1.98459 -6.9873 4.70634 2.92109 1.60332
